<svg xmlns="http://www.w3.org/2000/svg" viewBox="0 0 282.96 284.09"><path d="M0 284.1h282.96V0L0 .05z"/><path d="M12 14.1h257.97v256H12z" fill="#fff"/><path d="M215.63 244.42l8.77 11.67h31.24l-24.52-32.22zm15.5-31l24.72-32.2H224.6l-8.96 11.67zm-32.82-32.2h-30.73l28.25 37.4-28.22 37.44h30.73l28.22-37.44zM75.24 231.17c0 5.77-4.2 7.14-9.03 7.14H51.98v-14.27h15.18c5.46 0 8.08 2.72 8.08 7.13m-2.22-26.97c0 4.83-3.34 6.12-8.17 6.12H51.9v-11.26h12.95c4.73-.01 8.17 1.36 8.17 5.14m21.53-4.2c0-7.66-4.2-18.8-23.93-18.8l-40.55-.1-.02 74.97H72.1c13.22 0 26.44-7.7 26.44-22.7 0-11.02-6.5-16.37-13.2-18.68 5.55-3.04 9.22-7.14 9.22-14.7m59.57 18.7c0 16.7-9.5 20.57-15.4 20.57s-14.9-3.88-14.9-20.57 9.02-20.74 14.9-20.74c5.87 0 15.4 4.05 15.4 20.74m21.84 0c0-22.88-14.46-38.46-37.24-38.46-22.77 0-37.6 15.58-37.6 38.46s14.84 39.25 37.6 39.25c22.78 0 37.24-16.38 37.24-39.25"/></svg>